<svg xmlns="http://www.w3.org/2000/svg" viewBox="0 0 220 252"><defs><linearGradient id="bf" x1="0" x2="1"><stop offset="0" stop-color="#173766"/><stop offset=".2" stop-color="#2a5a9e"/><stop offset=".38" stop-color="#3b6cb3"/><stop offset=".7" stop-color="#24508f"/><stop offset="1" stop-color="#143059"/></linearGradient><linearGradient id="bt" x1="0" x2="0" y1="0" y2="1"><stop offset="0" stop-color="#4f80c4"/><stop offset="1" stop-color="#2f5fa3"/></linearGradient><linearGradient id="gd" x1="0" x2="1"><stop offset="0" stop-color="#a06f24"/><stop offset=".4" stop-color="#facb8d"/><stop offset="1" stop-color="#a06f24"/></linearGradient></defs><rect width="220" height="252" fill="#f3f2f2"/><path d="M30 62H190V228Q190 232 186 232H34Q30 232 30 228Z" fill="url(#bf)"/><path d="M30 62L46 38H174L190 62Z" fill="url(#bt)" stroke="#173766"/><path d="M30 62H190V70H30Z" fill="url(#gd)"/><path d="M30 218H190V228Q190 232 186 232H34Q30 232 30 228Z" fill="url(#gd)"/><rect x="78" y="46" width="64" height="7" rx="3.5" fill="#0f2442"/><rect x="44" y="82" width="132" height="124" rx="3" fill="#f8f4f4" stroke="url(#gd)" stroke-width="2.5"/><text x="110" y="150" text-anchor="middle" fill="#173766" font-family="Georgia,serif" font-weight="700" font-size="46" direction="rtl">צדקה</text></svg>
